#!OML:ASF H:\GeneralSubjects\Female5\Project 1\Capture day 1\Session 1\Female5.ASF
:FULLY-SPECIFIED
:DEGREES
546
root -26.479 16.0977 -1.37574 -141.61 -277.472 -154.258
lowerback 14.5374 3.73838 6.49644
upperback -10.2979 6.38757 -3.66413
thorax -19.2089 1.67852 -9.99291
lowerneck -13.6633 0.618147 6.24069
upperneck 39.0858 2.88938 -3.82841
head 16.4698 2.37981 -2.07596
rclavicle 6.70898e-014 2.38542e-015
rhumerus -47.5719 10.1971 -84.1811
rradius 47.4029
rwrist -11.9067
rhand -27.858 -18.6012
rfingers 7.12502
rthumb -1.24875 -48.5772
lclavicle 6.70898e-014 2.38542e-015
lhumerus -49.542 -2.67022 55.9756
lradius 24.3063
lwrist -8.25667
lhand -26.2288 33.8097
lfingers 7.12502
lthumb 0.324768 63.7892
rfemur -3.58493 -2.50774 28.5769
rtibia 35.2071
rfoot -6.37181 -11.9933
rtoes -39.7333
lfemur -23.6632 -19.286 -19.3399
ltibia 14.1762
lfoot -23.2035 -2.86647
ltoes -15.8998
547
root -26.7222 16.0611 -1.29205 -142.359 -278.216 -155.016
lowerback 14.3097 3.78412 6.65207
upperback -10.3182 6.5031 -3.50072
thorax -19.0618 1.74338 -9.8835
lowerneck -13.6905 0.597776 6.17345
upperneck 39.1075 2.9299 -3.89905
head 16.4908 2.38527 -2.08604
rclavicle 1.05853e-014 1.90833e-014
rhumerus -46.6399 10.2927 -83.5084
rradius 47.7493
rwrist -12.1543
rhand -27.8787 -18.6048
rfingers 7.12502
rthumb -1.2688 -48.5808
lclavicle 1.05853e-014 1.90833e-014
lhumerus -49.827 -2.0754 54.7318
lradius 23.9864
lwrist -9.33261
lhand -26.4022 34.4355
lfingers 7.12502
lthumb 0.157277 64.4152
rfemur -0.434652 -1.36653 29.2905
rtibia 31.0325
rfoot -5.72584 -11.8837
rtoes -36.0179
lfemur -25.3147 -19.3342 -18.4417
ltibia 14.7274
lfoot -22.652 -2.02204
ltoes -15.926
548
root -26.9733 16.0204 -1.2043 -142.887 -278.938 -155.612
lowerback 14.0844 3.83235 6.8437
upperback -10.355 6.63155 -3.33986
thorax -18.9325 1.80739 -9.80341
lowerneck -13.7172 0.567267 6.06977
upperneck 39.1515 2.97994 -3.98948
head 16.5239 2.38801 -2.09681
rclavicle -5.06901e-015 1.59028e-014
rhumerus -45.7191 10.4869 -82.9099
rradius 48.0162
rwrist -12.3344
rhand -27.9076 -18.6447
rfingers 7.12502
rthumb -1.29669 -48.6205
lclavicle -5.06901e-015 1.59028e-014
lhumerus -50.1215 -1.84045 53.9814
lradius 24.0408
lwrist -9.78576
lhand -26.6082 35.1388
lfingers 7.12502
lthumb -0.0416943 65.1185
rfemur 2.458 -0.0673808 30.2023
rtibia 26.45
rfoot -5.68168 -12.1122
rtoes -31.8719
lfemur -27.0794 -19.38 -17.5095
ltibia 15.26
lfoot -22.1383 -1.12719
ltoes -15.9269
549
root -27.2336 15.9771 -1.11277 -143.139 -279.629 -156.003
lowerback 13.87 3.87959 7.09254
upperback -10.4141 6.77382 -3.18448
thorax -18.8316 1.8668 -9.76987
lowerneck -13.753 0.546963 5.9538
upperneck 39.2348 3.06206 -4.08942
head 16.5829 2.40314 -2.10413
rclavicle 2.04748e-014 2.38542e-015
rhumerus -44.812 10.7817 -82.397
rradius 48.221
rwrist -12.4263
rhand -27.9441 -18.7334
rfingers 7.12502
rthumb -1.33188 -48.709
lclavicle 2.04748e-014 2.38542e-015
lhumerus -50.4226 -1.88931 53.6758
lradius 24.4273
lwrist -9.64052
lhand -26.8846 35.9196
lfingers 7.12502
lthumb -0.308632 65.8991
rfemur 4.96558 1.30585 31.275
rtibia 21.7496
rfoot -6.44535 -12.4944
rtoes -28.5764
lfemur -28.9411 -19.4633 -16.5099
ltibia 15.7092
lfoot -21.7336 -0.150505
ltoes -15.9241
550
root -27.5049 15.9326 -1.01705 -143.143 -280.281 -156.215
lowerback 13.6891 3.92004 7.40558
upperback -10.4918 6.92432 -3.03709
thorax -18.7695 1.91664 -9.79071
lowerneck -13.7996 0.548054 5.83025
upperneck 39.3369 3.18832 -4.19943
head 16.6589 2.43467 -2.10687
rclavicle -3.83654e-014 -8.74653e-015
rhumerus -43.8987 11.1798 -81.9775
rradius 48.3635
rwrist -12.4361
rhand -27.9727 -18.9244
rfingers 7.12502
rthumb -1.35951 -48.8998
lclavicle -3.83654e-014 -8.74653e-015
lhumerus -50.7344 -2.12934 53.7517
lradius 25.121
lwrist -8.94004
lhand -27.2347 36.6801
lfingers 7.12502
lthumb -0.646735 66.6589
rfemur 6.97134 2.69897 32.45
rtibia 17.2228
rfoot -7.6335 -13.0478
rtoes -28.6801
lfemur -30.8582 -19.6252 -15.4112
ltibia 15.9876
lfoot -21.505 0.934281
ltoes -15.9729
551
root -27.7878 15.8886 -0.916667 -142.967 -280.887 -156.305
lowerback 13.561 3.95015 7.77274
upperback -10.5792 7.07677 -2.89567
thorax -18.7495 1.95494 -9.85762
lowerneck -13.8491 0.581648 5.70569
upperneck 39.4369 3.37502 -4.32851
head 16.7406 2.48789 -2.10717
rclavicle 3.65267e-014 -1.11319e-014
rhumerus -42.9545 11.6681 -81.6434
rradius 48.4322
rwrist -12.3602
rhand -27.9534 -19.295
rfingers 7.12502
rthumb -1.34095 -49.2706
lclavicle 3.65267e-014 -1.11319e-014
lhumerus -51.067 -2.48551 54.1702
lradius 26.1091
lwrist -7.70529
lhand -27.5579 37.1793
lfingers 7.12502
lthumb -0.958962 67.1568
rfemur 8.38 4.06637 33.6563
rtibia 13.1639
rfoot -9.49325 -13.4996
rtoes -29.0636
lfemur -32.7794 -19.9205 -14.1806
ltibia 16.0076
lfoot -21.5415 2.12552
ltoes -16.215
552
root -28.082 15.8473 -0.811897 -142.7 -281.433 -156.349
lowerback 13.4931 3.97135 8.16791
upperback -10.6612 7.22675 -2.7579
thorax -18.7603 1.98418 -9.95118
lowerneck -13.874 0.649579 5.628
upperneck 39.4898 3.62382 -4.52623
head 16.799 2.56213 -2.13537
rclavicle 3.00662e-015 1.27222e-014
rhumerus -41.9582 12.242 -81.386
rradius 48.3993
rwrist -12.212
rhand -27.8716 -19.876
rfingers 7.12502
rthumb -1.26188 -49.8521
lclavicle 3.00662e-015 1.27222e-014
lhumerus -51.4244 -2.89966 54.9138
lradius 27.3711
lwrist -5.9795
lhand -27.7437 37.3543
lfingers 7.12502
lthumb -1.13841 67.331
rfemur 9.14122 5.35788 34.8049
rtibia 9.80277
rfoot -11.689 -13.8756
rtoes -28.9697
lfemur -34.6451 -20.4081 -12.7979
ltibia 15.7065
lfoot -21.9461 3.34931
ltoes -16.8858
553
root -28.3862 15.8112 -0.703546 -142.368 -281.905 -156.348
lowerback 13.4938 3.98419 8.58163
upperback -10.721 7.37184 -2.62321
thorax -18.7864 2.00573 -10.0639
lowerneck -13.9026 0.756751 5.56377
upperneck 39.4732 3.93758 -4.77802
head 16.829 2.65302 -2.17828
rclavicle -1.34925e-014 3.57812e-015
rhumerus -40.8975 12.8996 -81.2049
rradius 48.2444
rwrist -12.0341
rhand -27.7768 -20.5311
rfingers 7.12502
rthumb -1.1703 -50.5076
lclavicle -1.34925e-014 3.57812e-015
lhumerus -51.7878 -3.30574 55.9347
lradius 28.8447
lwrist -3.89592
lhand -27.7687 37.2364
lfingers 7.12502
lthumb -1.16254 67.2129
rfemur 9.26652 6.5236 35.8254
rtibia 7.25518
rfoot -13.8626 -14.2045
rtoes -27.8503
lfemur -36.406 -21.1108 -11.2364
ltibia 15.0678
lfoot -22.7951 4.44179
ltoes -18.2216
554
root -28.6986 15.783 -0.592744 -141.927 -282.306 -156.24
lowerback 13.5773 3.98842 9.01877
upperback -10.7528 7.51446 -2.4888
thorax -18.8289 2.01981 -10.1974
lowerneck -13.9675 0.902769 5.49008
upperneck 39.3948 4.30782 -5.05643
head 16.8417 2.75658 -2.22071
rclavicle 4.22045e-014 3.29983e-014
rhumerus -39.7857 13.6179 -81.0941
rradius 47.9661
rwrist -11.8622
rhand -27.7907 -20.8493
rfingers 7.12502
rthumb -1.18377 -50.8258
lclavicle 4.22045e-014 3.29983e-014
lhumerus -52.1279 -3.65491 57.1578
lradius 30.415
lwrist -1.68792
lhand -27.5918 36.5801
lfingers 7.12502
lthumb -0.991619 66.5576
rfemur 8.82246 7.5155 36.6835
rtibia 5.51671
rfoot -15.7134 -14.5342
rtoes -25.3218
lfemur -38.0366 -22.0036 -9.4679
ltibia 14.1306
lfoot -24.1219 5.18196
ltoes -20.3416
